<svg id="visual" viewBox="0 0 900 600" width="900" height="600" xmlns="http://www.w3.org/2000/svg" xmlns:xlink="http://www.w3.org/1999/xlink" version="1.1"><path d="M0 133L82 133L82 109L164 109L164 91L245 91L245 85L327 85L327 61L409 61L409 109L491 109L491 91L573 91L573 85L655 85L655 43L736 43L736 115L818 115L818 67L900 67L900 121L900 0L900 0L818 0L818 0L736 0L736 0L655 0L655 0L573 0L573 0L491 0L491 0L409 0L409 0L327 0L327 0L245 0L245 0L164 0L164 0L82 0L82 0L0 0Z" fill="#f7caca"></path><path d="M0 175L82 175L82 211L164 211L164 247L245 247L245 109L327 109L327 103L409 103L409 205L491 205L491 175L573 175L573 193L655 193L655 163L736 163L736 181L818 181L818 133L900 133L900 169L900 119L900 65L818 65L818 113L736 113L736 41L655 41L655 83L573 83L573 89L491 89L491 107L409 107L409 59L327 59L327 83L245 83L245 89L164 89L164 107L82 107L82 131L0 131Z" fill="#f5b4b8"></path><path d="M0 235L82 235L82 247L164 247L164 259L245 259L245 181L327 181L327 145L409 145L409 289L491 289L491 217L573 217L573 247L655 247L655 217L736 217L736 241L818 241L818 169L900 169L900 205L900 167L900 131L818 131L818 179L736 179L736 161L655 161L655 191L573 191L573 173L491 173L491 203L409 203L409 101L327 101L327 107L245 107L245 245L164 245L164 209L82 209L82 173L0 173Z" fill="#f19ea9"></path><path d="M0 421L82 421L82 343L164 343L164 355L245 355L245 301L327 301L327 367L409 367L409 433L491 433L491 337L573 337L573 403L655 403L655 265L736 265L736 373L818 373L818 283L900 283L900 457L900 203L900 167L818 167L818 239L736 239L736 215L655 215L655 245L573 245L573 215L491 215L491 287L409 287L409 143L327 143L327 179L245 179L245 257L164 257L164 245L82 245L82 233L0 233Z" fill="#ec889b"></path><path d="M0 439L82 439L82 415L164 415L164 397L245 397L245 319L327 319L327 403L409 403L409 451L491 451L491 397L573 397L573 463L655 463L655 343L736 343L736 391L818 391L818 301L900 301L900 499L900 455L900 281L818 281L818 371L736 371L736 263L655 263L655 401L573 401L573 335L491 335L491 431L409 431L409 365L327 365L327 299L245 299L245 353L164 353L164 341L82 341L82 419L0 419Z" fill="#e6718f"></path><path d="M0 583L82 583L82 577L164 577L164 577L245 577L245 541L327 541L327 505L409 505L409 541L491 541L491 583L573 583L573 541L655 541L655 523L736 523L736 547L818 547L818 529L900 529L900 559L900 497L900 299L818 299L818 389L736 389L736 341L655 341L655 461L573 461L573 395L491 395L491 449L409 449L409 401L327 401L327 317L245 317L245 395L164 395L164 413L82 413L82 437L0 437Z" fill="#df5885"></path><path d="M0 601L82 601L82 601L164 601L164 601L245 601L245 601L327 601L327 601L409 601L409 601L491 601L491 601L573 601L573 601L655 601L655 601L736 601L736 601L818 601L818 601L900 601L900 601L900 557L900 527L818 527L818 545L736 545L736 521L655 521L655 539L573 539L573 581L491 581L491 539L409 539L409 503L327 503L327 539L245 539L245 575L164 575L164 575L82 575L82 581L0 581Z" fill="#d73c7d"></path></svg>